<svg version="1.2" baseProfile="tiny" viewBox="0 0 293.498 312.698" xmlns:xlink="http://www.w3.org/1999/xlink" xmlns="http://www.w3.org/2000/svg">
<path style="fill:#ffffff;" d="M291.994,193.561c0-0.343-0.043-0.651-0.121-0.924v-78.242c0.073-0.237,0.121-0.494,0.121-0.781    c0-0.289-0.048-0.549-0.123-0.787c-0.008-2.865-0.038-17.7-0.038-17.7s0-0.465-0.073-1.278c0-0.02,0.039-7.625-5.854-15.397    c-0.316-0.421-0.644-0.841-0.994-1.256c-6.335-7.512-16.286-12.146-16.286-12.146s-47.936-29.896-47.432-29.559    c0.034,0.022-0.288-0.176-0.476-0.278c-0.083-0.045-0.157-0.062-0.236-0.095c-8.696-5.037-12.68-7.454-12.68-15.914    c0-11.622-8.938-17.703-17.767-17.703c-4.567,0-8.827,1.569-11.995,4.417c-2.758,2.48-4.501,5.767-5.173,9.619h-0.018    c0,0-0.325,1.363-0.304,3.2H87.308c-0.625,0-0.771,0.831-0.771,1.76s0.052,1.879,0.677,1.879l1.781,0.01    c-0.879,13.762-7.608,17.905-20.943,26.356c0,0-0.001,0.001-0.001,0.001L20.034,79.172C13.078,83.454,8.212,91.125,7.315,99.655    H4.419c-1.612,0-2.919,0.983-2.919,2.595c0,1.613,1.307,2.596,2.919,2.596l3.072,0.008v9.774h0.011v42.045v33.833H4.419    c-1.612,0.181-2.919,1.467-2.919,3.054c0,1.587,1.307,2.873,2.919,2.873v1.152v30.888v24.813c-1.612,0-2.919,1.307-2.919,2.919    c0,1.612,1.307,2.919,2.919,2.919h3.083v1.736v3.618H25.32l19.005,25.778v20.941h4.379v-46.719h22.384v46.719h4.379l0.001-20.92    l25.799-25.799h17.759v7.273v12.193h11.923v4.639v22.614h18.979v-22.614v-4.639h11.923v-12.193v-7.273h17.83l25.71,25.578v21.141    h4.38l0.016-46.719h22.339v46.652h4.379v-20.91l18.987-25.743h18.209v-3.618v-1.736h2.758c0.737,0,1.402-0.282,1.916-0.733h0.136    c0,0-0.005,0.003-0.005,0.003s4.96,0,7.473,0c-0.021,0-0.04-0.003-0.061-0.003l1.694,0.003v52.803h4.38l-0.119-53.986    c0.075-0.251,0.119-0.54,0.119-0.869c0-0.343-0.043-0.651-0.121-0.924v-60.979C291.95,194.187,291.994,193.895,291.994,193.561z     M44.326,282.816l-13.55-18.338h13.55V282.816z M75.471,284.084l0.001-19.605h19.604L75.471,284.084z M205.394,283.863    l-19.385-19.385h19.385V283.863z M192.036,22.386l1.632-0.01c0.626,0,0.677-0.95,0.677-1.879s-0.146-1.76-0.771-1.76H176.93    c0.009-0.36,0.041-0.708,0.071-1.057c0.094-0.815,0.231-1.633,0.29-1.971c0.571-2.629,1.81-4.854,3.678-6.534    c2.362-2.125,5.582-3.294,9.066-3.294c6.448,0,13.388,4.169,13.388,13.323c0,10.309,5.22,14.064,13.301,18.794l-5.698,9.709    C198.813,39.937,192.883,35.554,192.036,22.386z M236.508,282.78v-18.301h13.476L236.508,282.78z M214.725,50.054l5.689-9.879    l44.094,27.607l-5.48,10.348L214.725,50.054z M287.614,254.019h-9.236c-0.514-0.451-1.179-0.733-1.917-0.733v-24.813v-30.888    v-1.152c0.796,0,1.516-0.315,2.042-0.824h0.009c0,0-0.005,0.003-0.005,0.003h9.105V254.019z M287.614,191.237h-9.271    c-0.495-0.443-1.134-0.73-1.882-0.73h-2.758v-33.833v-40.87h7.797h1.391h4.723V191.237z M287.614,111.424h-13.91v-6.57v-0.007    h2.968c1.612,0,2.919-0.983,2.919-2.596c0-1.612-1.307-2.595-2.919-2.595l-3.282-0.001c-0.807-7.668-4.824-14.637-10.681-19.078    l5.314-10.857c0,0,2.184,1.045,3.476,1.795c5.364,3.206,15.445,10.936,16.115,24.06V111.424z M291.685,93.13    c0.062,0.454,0.074,0.703,0.075,0.716C291.741,93.632,291.716,93.391,291.685,93.13z"/>
</svg>