<svg version="1.2" baseProfile="tiny" id="EdgeSVG_s2j2n" x="0px" y="0px" width="293.498px" height="312.698px" viewBox="0 0 293.498 312.698" xmlns:xlink="http://www.w3.org/1999/xlink" xmlns="http://www.w3.org/2000/svg">
  <linearGradient id="SVGID_1_" gradientUnits="userSpaceOnUse" x1="0" y1="156.3486" x2="293.4976" y2="156.3486">
    <stop offset="0" style="stop-color:#000000;stop-opacity:0.5"/>
    <stop offset="1" style="stop-color:#000000;stop-opacity:0.5"/>
  </linearGradient>
  <path fill="url(#SVGID_1_)" d="M286.114,312.698v-52.805l-7.239,0.002c-0.718,0.474-1.556,0.73-2.413,0.73h-1.258v5.354h-18.952&#xD;&#xA;&#x9;&#x9;l-18.245,24.736v21.917h-7.379v-46.652h-19.339l-0.016,46.719h-7.379V290.68l-24.83-24.702h-15.71v19.466h-11.923v27.253h-21.979&#xD;&#xA;&#x9;&#x9;v-27.253h-11.923v-19.466H101.89l-24.92,24.92l-0.001,21.799h-7.379v-46.719H50.205v46.719h-7.379V290.75l-18.263-24.771H6.002&#xD;&#xA;&#x9;&#x9;v-5.354H4.419c-2.437,0-4.419-1.982-4.419-4.419c0-1.911,1.219-3.542,2.919-4.157v-54.374C1.219,197.065,0,195.451,0,193.561&#xD;&#xA;&#x9;&#x9;c0-2.318,1.828-4.272,4.252-4.544l0.083-0.009h1.667v-72.879l-0.011-1.5v-8.278l-1.576-0.004c-2.557,0-4.416-1.723-4.416-4.096&#xD;&#xA;&#x9;&#x9;s1.859-4.095,4.419-4.095h1.577c1.278-8.393,6.161-15.895,13.251-20.26l48.36-30.647c12.539-7.945,18.549-11.753,19.758-23.371&#xD;&#xA;&#x9;&#x9;l-0.161-0.001c-2.168,0-2.168-2.543-2.168-3.379c0-2.942,1.588-3.26,2.271-3.26h83.789c0.094-1.2,0.283-2.003,0.293-2.048&#xD;&#xA;&#x9;&#x9;l0.07-0.295c0.781-4.025,2.705-7.507,5.577-10.09C180.481,1.705,185.097,0,190.035,0c9.575,0,19.267,6.596,19.267,19.203&#xD;&#xA;&#x9;&#x9;c0,7.672,3.463,9.711,11.824,14.554c0.102,0.037,0.202,0.08,0.31,0.138c0.146,0.079,0.369,0.212,0.478,0.278l-0.048,0.088&#xD;&#xA;&#x9;&#x9;c1.884,1.032,9.784,5.958,47.48,29.469c1.068,0.507,10.481,5.108,16.713,12.499c0.369,0.437,0.714,0.879,1.047,1.323&#xD;&#xA;&#x9;&#x9;c5.862,7.731,6.142,15.335,6.154,16.225c0.075,0.859,0.074,1.349,0.074,1.349c0-0.001,0.028,14.195,0.037,17.494&#xD;&#xA;&#x9;&#x9;c0.082,0.328,0.124,0.661,0.124,0.995c0,0.333-0.04,0.657-0.121,0.984v77.852c0.081,0.351,0.121,0.724,0.121,1.111&#xD;&#xA;&#x9;&#x9;c0,0.377-0.041,0.738-0.121,1.076v60.596c0.081,0.351,0.121,0.724,0.121,1.111c0,0.37-0.04,0.726-0.119,1.062l0.122,55.293H286.114&#xD;&#xA;&#x9;&#x9;z M76.971,280.462l14.484-14.484H76.972L76.971,280.462z M203.894,280.242v-14.264H189.63L203.894,280.242z M42.826,278.262&#xD;&#xA;&#x9;&#x9;v-12.284h-9.077L42.826,278.262z M238.008,278.213l9.008-12.234h-9.008V278.213z M286.114,252.519v-55.406h-7.078&#xD;&#xA;&#x9;&#x9;c-0.333,0.237-0.694,0.426-1.075,0.562v54.379c0.321,0.118,0.629,0.274,0.918,0.465H286.114z M286.114,189.737v-72.433h-10.91&#xD;&#xA;&#x9;&#x9;v71.703h1.258c0.866,0,1.682,0.25,2.393,0.73H286.114z M286.114,109.924v-14.35c-0.623-12.175-9.906-19.498-15.384-22.772&#xD;&#xA;&#x9;&#x9;c-0.575-0.333-1.356-0.738-2.02-1.073l-4.123,8.423c5.425,4.503,9.047,10.948,10.122,18.002l1.963,0.001&#xD;&#xA;&#x9;&#x9;c2.56,0,4.419,1.722,4.419,4.095c0,2.373-1.859,4.096-4.419,4.096h-1.468v3.578H286.114z M258.461,75.995l4.068-7.682&#xD;&#xA;&#x9;&#x9;l-41.593-26.041l-4.194,7.285L258.461,75.995z M193.664,23.875c1.111,10.845,6.176,14.886,16.856,21.729l4.153-7.078&#xD;&#xA;&#x9;&#x9;c-7.751-4.642-12.75-8.853-12.75-19.324c0-8.124-6.162-11.823-11.888-11.823c-3.113,0-5.977,1.033-8.063,2.91&#xD;&#xA;&#x9;&#x9;c-1.623,1.459-2.705,3.39-3.215,5.737c-0.033,0.193-0.112,0.665-0.188,1.209h15.004c0.683,0,2.271,0.318,2.271,3.26&#xD;&#xA;&#x9;&#x9;c0,0.836,0,3.379-2.177,3.379H193.664z"/>
</svg>