<svg version="1.2" baseProfile="tiny" id="EdgeSVG_g6gRh" x="0px" y="0px" width="11.417px" height="48.234px" viewBox="0 0 11.417 48.234" xmlns:xlink="http://www.w3.org/1999/xlink" xmlns="http://www.w3.org/2000/svg">
  <linearGradient id="SVGID_3_" gradientUnits="userSpaceOnUse" x1="5.7109" y1="48.2339" x2="5.7109" y2="0.0273">
    <stop offset="0" style="stop-color:#FFFFFF;stop-opacity:0.4333"/>
    <stop offset="0.6258" style="stop-color:#FFFFFF;stop-opacity:0"/>
    <stop offset="0.8896" style="stop-color:#FFFFFF;stop-opacity:0.5"/>
    <stop offset="0.9961" style="stop-color:#FFFFFF;stop-opacity:0.307"/>
    <stop offset="1" style="stop-color:#FFFFFF;stop-opacity:0.3"/>
  </linearGradient>
  <path style="fill:url(#SVGID_3_);" d="M10.888,33.283c0,9.005-3.467,14.951-5.177,14.951c-1.558,0-5.178-5.946-5.178-14.951&#xD;&#xA;&#x9;&#x9;c0-8.998,3.98-24.524,5.178-33.048C6.108-2.597,10.888,24.285,10.888,33.283z"/>
  <linearGradient id="SVGID_4_" gradientUnits="userSpaceOnUse" x1="5.7109" y1="48.2339" x2="5.7109" y2="0.0547">
    <stop offset="0.6319" style="stop-color:#FFFFFF;stop-opacity:0.12"/>
    <stop offset="0.9816" style="stop-color:#FFFFFF;stop-opacity:0.3"/>
  </linearGradient>
  <path style="fill:url(#SVGID_4_);" d="M10.461,33.283c0,9.005-3.182,14.951-4.75,14.951c-1.428,0-4.749-5.946-4.749-14.951&#xD;&#xA;&#x9;&#x9;c0-8.998,4.75-20,4.749-33.048C5.711-2.388,10.461,24.285,10.461,33.283z"/>
  <linearGradient id="SVGID_5_" gradientUnits="userSpaceOnUse" x1="5.709" y1="47.2163" x2="5.709" y2="5.2573">
    <stop offset="0.3865" style="stop-color:#FFFFFF;stop-opacity:0"/>
    <stop offset="0.6994" style="stop-color:#FFFFFF;stop-opacity:0.4"/>
    <stop offset="1" style="stop-color:#FFFFFF;stop-opacity:0.3"/>
  </linearGradient>
  <path style="fill:url(#SVGID_5_);" d="M9.626,34.196c0,7.838-2.621,13.02-3.915,13.02c-1.181,0-3.919-5.182-3.919-13.02&#xD;&#xA;&#x9;&#x9;c0-7.838,3.92-17.418,3.919-28.782C5.711,3.131,9.626,26.358,9.626,34.196z"/>
  <linearGradient id="SVGID_6_" gradientUnits="userSpaceOnUse" x1="8.3867" y1="33.0391" x2="3.0361" y2="33.0391">
    <stop offset="0.227" style="stop-color:#FFFFFF;stop-opacity:0.5"/>
    <stop offset="0.2955" style="stop-color:#FFFFFF;stop-opacity:0.5424"/>
    <stop offset="0.7117" style="stop-color:#FFFFFF;stop-opacity:0.8"/>
    <stop offset="0.7535" style="stop-color:#FFFFFF;stop-opacity:0.7275"/>
    <stop offset="1" style="stop-color:#FFFFFF;stop-opacity:0.3"/>
  </linearGradient>
  <path style="fill:url(#SVGID_6_);" d="M8.387,38.474c0,5.353-1.795,8.889-2.676,8.889c-0.805,0-2.675-3.536-2.675-8.889&#xD;&#xA;&#x9;&#x9;c0-5.353,2.676-11.892,2.675-19.652C5.711,17.262,8.387,33.122,8.387,38.474z"/>
  <linearGradient id="SVGID_7_" gradientUnits="userSpaceOnUse" x1="5.7109" y1="47.3633" x2="5.7109" y2="18.7144">
    <stop offset="0" style="stop-color:#FFFFFF;stop-opacity:0.5"/>
    <stop offset="0.0798" style="stop-color:#FFFFFF;stop-opacity:0.8"/>
    <stop offset="0.2132" style="stop-color:#FFFFFF;stop-opacity:0.7275"/>
    <stop offset="1" style="stop-color:#FFFFFF;stop-opacity:0.3"/>
  </linearGradient>
  <path style="fill:url(#SVGID_7_);" d="M8.387,38.474c0,5.353-1.795,8.889-2.676,8.889c-0.805,0-2.675-3.536-2.675-8.889&#xD;&#xA;&#x9;&#x9;c0-5.353,2.676-11.892,2.675-19.652C5.711,17.262,8.387,33.122,8.387,38.474z"/>
  <linearGradient id="SVGID_8_" gradientUnits="userSpaceOnUse" x1="5.7109" y1="48.0669" x2="5.7109" y2="41.853">
    <stop offset="0" style="stop-color:#FFFFFF;stop-opacity:0"/>
    <stop offset="0.0143" style="stop-color:#E5E5E5;stop-opacity:0.0025"/>
    <stop offset="0.0403" style="stop-color:#BDBCBC;stop-opacity:0.0069"/>
    <stop offset="0.0695" style="stop-color:#989697;stop-opacity:0.0119"/>
    <stop offset="0.1013" style="stop-color:#787676;stop-opacity:0.0174"/>
    <stop offset="0.1364" style="stop-color:#5D5A5B;stop-opacity:0.0234"/>
    <stop offset="0.1761" style="stop-color:#484445;stop-opacity:0.0302"/>
    <stop offset="0.2223" style="stop-color:#373334;stop-opacity:0.0381"/>
    <stop offset="0.2796" style="stop-color:#2C2829;stop-opacity:0.048"/>
    <stop offset="0.3599" style="stop-color:#252122;stop-opacity:0.0618"/>
    <stop offset="0.5828" style="stop-color:#231F20;stop-opacity:0.1"/>
    <stop offset="0.6265" style="stop-color:#282425;stop-opacity:0.0883"/>
    <stop offset="0.6763" style="stop-color:#353132;stop-opacity:0.075"/>
    <stop offset="0.7291" style="stop-color:#4C4849;stop-opacity:0.0609"/>
    <stop offset="0.784" style="stop-color:#6B6869;stop-opacity:0.0462"/>
    <stop offset="0.8406" style="stop-color:#949292;stop-opacity:0.0311"/>
    <stop offset="0.8986" style="stop-color:#C5C4C4;stop-opacity:0.0156"/>
    <stop offset="0.9571" style="stop-color:#FFFFFF;stop-opacity:0"/>
  </linearGradient>
  <path style="fill:url(#SVGID_8_);" d="M1.313,41.853c0,0,2.927,5.742,4.261,6.188c1.33,0.451,4.261-5,4.525-5.953&#xD;&#xA;&#x9;&#x9;C10.363,41.137,5.711,49.771,1.313,41.853z"/>
  <linearGradient id="SVGID_9_" gradientUnits="userSpaceOnUse" x1="5.7109" y1="48.0669" x2="5.7109" y2="41.853">
    <stop offset="0" style="stop-color:#FFFFFF;stop-opacity:0"/>
    <stop offset="0.0143" style="stop-color:#E5E5E5;stop-opacity:0.0025"/>
    <stop offset="0.0403" style="stop-color:#BDBCBC;stop-opacity:0.0069"/>
    <stop offset="0.0695" style="stop-color:#989697;stop-opacity:0.0119"/>
    <stop offset="0.1013" style="stop-color:#787676;stop-opacity:0.0174"/>
    <stop offset="0.1364" style="stop-color:#5D5A5B;stop-opacity:0.0234"/>
    <stop offset="0.1761" style="stop-color:#484445;stop-opacity:0.0302"/>
    <stop offset="0.2223" style="stop-color:#373334;stop-opacity:0.0381"/>
    <stop offset="0.2796" style="stop-color:#2C2829;stop-opacity:0.048"/>
    <stop offset="0.3599" style="stop-color:#252122;stop-opacity:0.0618"/>
    <stop offset="0.5828" style="stop-color:#231F20;stop-opacity:0.1"/>
    <stop offset="0.6265" style="stop-color:#282425;stop-opacity:0.0883"/>
    <stop offset="0.6763" style="stop-color:#353132;stop-opacity:0.075"/>
    <stop offset="0.7291" style="stop-color:#4C4849;stop-opacity:0.0609"/>
    <stop offset="0.784" style="stop-color:#6B6869;stop-opacity:0.0462"/>
    <stop offset="0.8406" style="stop-color:#949292;stop-opacity:0.0311"/>
    <stop offset="0.8986" style="stop-color:#C5C4C4;stop-opacity:0.0156"/>
    <stop offset="0.9571" style="stop-color:#FFFFFF;stop-opacity:0"/>
  </linearGradient>
  <path style="fill:url(#SVGID_9_);" d="M1.313,41.853c0,0,2.927,5.742,4.261,6.188c1.33,0.451,4.261-5,4.525-5.953&#xD;&#xA;&#x9;&#x9;C10.363,41.137,5.711,49.771,1.313,41.853z"/>
  <linearGradient id="SVGID_10_" gradientUnits="userSpaceOnUse" x1="5.7109" y1="47.6743" x2="5.7109" y2="40.2534">
    <stop offset="0" style="stop-color:#FFFFFF;stop-opacity:0"/>
    <stop offset="0.0143" style="stop-color:#E5E5E5;stop-opacity:0.0049"/>
    <stop offset="0.0403" style="stop-color:#BDBCBC;stop-opacity:0.0138"/>
    <stop offset="0.0695" style="stop-color:#989697;stop-opacity:0.0239"/>
    <stop offset="0.1013" style="stop-color:#787676;stop-opacity:0.0348"/>
    <stop offset="0.1364" style="stop-color:#5D5A5B;stop-opacity:0.0468"/>
    <stop offset="0.1761" style="stop-color:#484445;stop-opacity:0.0604"/>
    <stop offset="0.2223" style="stop-color:#373334;stop-opacity:0.0763"/>
    <stop offset="0.2796" style="stop-color:#2C2829;stop-opacity:0.0959"/>
    <stop offset="0.3599" style="stop-color:#252122;stop-opacity:0.1235"/>
    <stop offset="0.5828" style="stop-color:#231F20;stop-opacity:0.2"/>
    <stop offset="0.6265" style="stop-color:#282425;stop-opacity:0.1767"/>
    <stop offset="0.6763" style="stop-color:#353132;stop-opacity:0.1501"/>
    <stop offset="0.7291" style="stop-color:#4C4849;stop-opacity:0.1218"/>
    <stop offset="0.784" style="stop-color:#6B6869;stop-opacity:0.0925"/>
    <stop offset="0.8406" style="stop-color:#949292;stop-opacity:0.0622"/>
    <stop offset="0.8986" style="stop-color:#C5C4C4;stop-opacity:0.0313"/>
    <stop offset="0.9571" style="stop-color:#FFFFFF;stop-opacity:0"/>
  </linearGradient>
  <path style="fill:url(#SVGID_10_);" d="M1.313,40.253c0,0,2.927,6.855,4.261,7.39c1.33,0.537,4.261-5.971,4.525-7.108&#xD;&#xA;&#x9;&#x9;C10.363,39.397,5.711,49.708,1.313,40.253z"/>
  <linearGradient id="SVGID_11_" gradientUnits="userSpaceOnUse" x1="5.709" y1="47.2163" x2="5.709" y2="5.2573">
    <stop offset="0" style="stop-color:#FFFFFF;stop-opacity:0.3347"/>
    <stop offset="0.2883" style="stop-color:#FFFFFF;stop-opacity:0"/>
    <stop offset="0.6994" style="stop-color:#FFFFFF;stop-opacity:0.4"/>
    <stop offset="1" style="stop-color:#FFFFFF;stop-opacity:0.3"/>
  </linearGradient>
  <path style="fill:url(#SVGID_11_);" d="M9.626,34.196c0,7.838-2.621,13.02-3.915,13.02c-1.181,0-3.919-5.182-3.919-13.02&#xD;&#xA;&#x9;&#x9;c0-7.838,3.92-17.418,3.919-28.782C5.711,3.131,9.626,26.358,9.626,34.196z"/>
  <linearGradient id="SVGID_12_" gradientUnits="userSpaceOnUse" x1="5.709" y1="47.2163" x2="5.709" y2="5.2573">
    <stop offset="0.0798" style="stop-color:#FFFFFF;stop-opacity:0.3545"/>
    <stop offset="0.4908" style="stop-color:#FFFFFF;stop-opacity:0"/>
    <stop offset="0.865" style="stop-color:#FFFFFF;stop-opacity:0.4"/>
    <stop offset="1" style="stop-color:#FFFFFF;stop-opacity:0.3"/>
  </linearGradient>
  <path style="fill:url(#SVGID_12_);" d="M9.626,34.196c0,7.838-2.621,13.02-3.915,13.02c-1.181,0-3.919-5.182-3.919-13.02&#xD;&#xA;&#x9;&#x9;c0-7.838,3.92-17.418,3.919-28.782C5.711,3.131,9.626,26.358,9.626,34.196z"/>
  <linearGradient id="SVGID_13_" gradientUnits="userSpaceOnUse" x1="8.7598" y1="29.5625" x2="2.6602" y2="29.5625">
    <stop offset="0.135" style="stop-color:#FFFFFF;stop-opacity:0.15"/>
    <stop offset="0.3129" style="stop-color:#FFFFFF;stop-opacity:0"/>
    <stop offset="0.5521" style="stop-color:#FFFFFF;stop-opacity:0.1"/>
  </linearGradient>
  <path style="fill:url(#SVGID_13_);" d="M8.76,35.759c0,6.104-2.044,10.137-3.049,10.137c-0.918,0-3.051-4.033-3.051-10.137&#xD;&#xA;&#x9;&#x9;c0-6.101,3.052-13.56,3.051-22.409C5.711,11.572,8.76,29.658,8.76,35.759z"/>
  <linearGradient id="SVGID_14_" gradientUnits="userSpaceOnUse" x1="5.71" y1="45.8965" x2="5.71" y2="13.228">
    <stop offset="0.135" style="stop-color:#FFFFFF;stop-opacity:0.5"/>
    <stop offset="0.5828" style="stop-color:#FFEA53;stop-opacity:0.3"/>
    <stop offset="0.6229" style="stop-color:#FFEB5A;stop-opacity:0.2883"/>
    <stop offset="0.6791" style="stop-color:#FFED6C;stop-opacity:0.272"/>
    <stop offset="0.7449" style="stop-color:#FFF18A;stop-opacity:0.2528"/>
    <stop offset="0.818" style="stop-color:#FFF6B3;stop-opacity:0.2316"/>
    <stop offset="0.896" style="stop-color:#FFFCE8;stop-opacity:0.2088"/>
    <stop offset="0.9264" style="stop-color:#FFFFFF;stop-opacity:0.2"/>
  </linearGradient>
  <path style="fill:url(#SVGID_14_);" d="M8.76,35.759c0,6.104-2.044,10.137-3.049,10.137c-0.918,0-3.051-4.033-3.051-10.137&#xD;&#xA;&#x9;&#x9;c0-6.101,3.052-13.56,3.051-22.409C5.711,11.572,8.76,29.658,8.76,35.759z"/>
</svg>