<svg version="1.2" baseProfile="tiny" viewBox="0 0 11.417 48.234" xmlns:xlink="http://www.w3.org/1999/xlink" xmlns="http://www.w3.org/2000/svg">
<path style="fill:#ffffff;" d="M11.203,36.836c0.052-0.437,0.095-0.884,0.128-1.341c0.008-0.116,0.02-0.228,0.027-0.345    c0.037-0.606,0.059-1.227,0.059-1.866c0-8.417-4.515-32.715-5.545-33.279C5.864,0,5.857,0.002,5.85,0.001    C5.829-0.003,5.811,0.006,5.794,0.023C5.785,0.033,5.775,0.039,5.768,0.053C5.745,0.093,5.726,0.148,5.71,0.235    C4.543,6.866,1.183,19.808,0.249,29.037c-0.04,0.417-0.08,0.833-0.109,1.233c-0.007,0.085-0.013,0.169-0.019,0.253    c-0.041,0.577-0.072,1.14-0.09,1.677C0.019,32.564,0,32.939,0,33.283c0,0.754,0.036,1.479,0.089,2.189    c0.012,0.158,0.024,0.315,0.038,0.471c0.128,1.408,0.347,2.722,0.635,3.925c0.023,0.101,0.049,0.201,0.074,0.301    c0.149,0.593,0.311,1.167,0.488,1.703c-0.001-0.001-0.001-0.002-0.002-0.003c0.001,0.003,0.002,0.006,0.003,0.009    c0,0.001,0.001,0.001,0.001,0.002c0.121,0.366,0.248,0.714,0.378,1.051c1.299,3.35,3.023,5.302,4.006,5.302    c1.177,0,3.108-2.319,4.395-6.253c0.036-0.111,0.068-0.233,0.104-0.347c0.09-0.29,0.18-0.578,0.262-0.884    c0.03-0.111,0.055-0.231,0.083-0.344c0.138-0.543,0.26-1.115,0.371-1.703c0.05-0.27,0.088-0.555,0.132-0.834    C11.108,37.53,11.162,37.19,11.203,36.836z"/>
</svg>